<svg width="3279" height="1065" viewBox="0 0 3279 1065" fill="none" xmlns="http://www.w3.org/2000/svg">
<path id="Vector" d="M-22.4324 489.243C-27.5447 496.11 -26.1229 505.82 -19.2567 510.932C-12.3904 516.045 -2.67991 514.623 2.43239 507.757L-22.4324 489.243ZM561 80.5L558.859 95.8514L558.859 95.8514L561 80.5ZM798 528L810.796 519.253C810.593 518.955 810.379 518.664 810.155 518.381L798 528ZM798 706L786.43 695.686L786.43 695.686L798 706ZM1264.5 294.5L1278.34 301.48L1278.34 301.48L1264.5 294.5ZM1919.52 408.92C1925.83 414.708 1935.63 414.287 1941.42 407.98C1947.21 401.672 1946.79 391.867 1940.48 386.079L1919.52 408.92ZM1928.8 373.896C1922.95 367.652 1913.14 367.339 1906.9 373.195C1900.65 379.052 1900.34 388.861 1906.2 395.104L1928.8 373.896ZM2139.5 807L2152.2 815.885L2152.2 815.885L2139.5 807ZM2244 460.5L2248.68 475.278L2248.68 475.278L2244 460.5ZM3423.48 1230.4C3429.5 1236.49 3439.31 1236.54 3445.4 1230.52C3451.49 1224.5 3451.54 1214.69 3445.52 1208.6L3423.48 1230.4ZM2.43239 507.757C56.0539 435.739 151.415 325.664 256.234 237.023C308.644 192.702 362.969 154.124 415.248 128.277C467.734 102.328 516.641 89.9626 558.859 95.8514L563.141 65.1486C512.159 58.0374 456.633 73.2347 401.509 100.488C346.177 127.845 289.715 168.111 236.216 213.352C129.219 303.836 32.2795 415.761 -22.4324 489.243L2.43239 507.757ZM558.859 95.8514C600.531 101.664 629.374 122.855 651.159 154.086C673.371 185.93 688.093 228.058 700.276 274.786C706.338 298.032 711.676 322.013 717.041 346.096C722.381 370.073 727.752 394.171 733.801 417.162C745.797 462.756 760.97 506.182 785.845 537.618L810.155 518.381C789.53 492.318 775.628 454.305 763.78 409.275C757.908 386.954 752.664 363.442 747.299 339.356C741.958 315.377 736.5 290.843 730.274 266.964C717.882 219.442 702.067 172.883 676.585 136.351C650.676 99.2071 614.669 72.336 563.141 65.1486L558.859 95.8514ZM785.204 536.746C815.312 580.796 847.344 609.92 879.256 627.609L894.285 600.496C867.372 585.577 838.731 560.122 810.796 519.253L785.204 536.746ZM879.256 627.609C949.363 666.469 1015.8 648.578 1052.38 619.564C1061.54 612.295 1069.16 604.076 1074.51 595.48C1079.76 587.043 1083.43 577.223 1082.94 567.134C1082.41 556.282 1077.07 546.643 1067.38 540.303C1058.36 534.401 1046.63 532 1033.5 532V563C1043.4 563 1048.35 564.898 1050.41 566.244C1051.8 567.152 1051.93 567.709 1051.97 568.647C1052.06 570.348 1051.42 573.913 1048.19 579.104C1045.06 584.136 1040.03 589.786 1033.11 595.277C1005.34 617.303 952.362 632.688 894.285 600.496L879.256 627.609ZM1033.5 532C1009.74 532 987.351 533.496 962.021 543.63C936.973 553.651 910.213 571.636 876.315 602.61L897.226 625.495C929.737 595.788 953.328 580.496 973.536 572.412C993.462 564.44 1011.23 563 1033.5 563V532ZM876.315 602.61C851.282 625.483 822.035 655.744 786.43 695.686L809.57 716.314C844.813 676.778 873.279 647.376 897.226 625.495L876.315 602.61ZM786.43 695.686C768.724 715.549 738.573 762.601 732.029 810.672C728.702 835.116 731.314 861.223 746.377 883.939C761.5 906.745 787.585 923.748 826.378 933.071L833.622 902.929C800.015 894.852 781.796 881.259 772.213 866.808C762.571 852.267 760.077 834.455 762.746 814.853C768.194 774.833 794.442 733.285 809.57 716.314L786.43 695.686ZM826.378 933.071C871.217 943.847 915.205 916.913 954.853 876.26C995.293 834.794 1035.7 774.541 1074.38 707.524C1151.62 573.704 1224.82 407.58 1278.34 301.48L1250.66 287.52C1195.93 396.023 1124.29 559.049 1047.53 692.028C1009.22 758.411 970.351 815.969 932.66 854.616C894.177 894.075 861.183 909.553 833.622 902.929L826.378 933.071ZM1278.34 301.48C1306.88 244.888 1366.99 142.631 1439.58 81.1797C1475.84 50.4812 1513.37 31.5414 1550.24 31.3936C1586.25 31.2493 1625.34 49.0607 1665.3 100.06L1689.7 80.9398C1645.66 24.7392 1598.31 0.200656 1550.12 0.393828C1502.79 0.583537 1458.35 24.6687 1419.55 57.5202C1342.01 123.169 1279.62 230.112 1250.66 287.52L1278.34 301.48ZM1665.3 100.06C1749.36 207.344 1809.05 280.976 1849.54 329.46C1889.72 377.571 1911.53 401.586 1919.52 408.92L1940.48 386.079C1934.31 380.413 1913.87 358.129 1873.33 309.59C1833.11 261.424 1773.64 188.056 1689.7 80.9398L1665.3 100.06ZM1906.2 395.104C1953.26 445.28 2015.98 512.598 2064.93 581.024L2090.14 562.988C2039.82 492.642 1975.71 423.9 1928.8 373.896L1906.2 395.104ZM2064.93 581.024C2095.73 624.085 2120.38 666.642 2132.48 704.893C2144.59 743.181 2143.36 774.438 2126.8 798.115L2152.2 815.885C2176.61 780.995 2175.57 738.326 2162.04 695.545C2148.5 652.727 2121.68 607.07 2090.14 562.988L2064.93 581.024ZM2126.8 798.115C2119.12 809.087 2111.97 814.763 2106.16 817.346C2100.68 819.784 2095.67 819.825 2090.73 818.082C2079.83 814.233 2066.79 800.435 2057.51 775.552C2039.38 726.902 2040.89 648.662 2090.07 581.129L2065.01 562.882C2009.38 639.277 2006.9 728.52 2028.47 786.379C2039.04 814.75 2056.76 838.963 2080.41 847.313C2092.75 851.671 2105.97 851.359 2118.76 845.672C2131.22 840.13 2142.39 829.906 2152.2 815.885L2126.8 798.115ZM2090.07 581.129C2120.95 538.719 2171.14 499.813 2248.68 475.278L2239.32 445.722C2156.23 472.014 2100.22 514.514 2065.01 562.882L2090.07 581.129ZM2248.68 475.278C2309.98 455.881 2395.5 472.592 2496.75 516.968C2597.23 561.003 2709.94 630.802 2823.76 712.659C3051.34 876.316 3281.3 1086.64 3423.48 1230.4L3445.52 1208.6C3302.53 1064.03 3071.25 852.451 2841.86 687.491C2727.21 605.04 2612.51 533.851 2509.2 488.575C2406.67 443.642 2312.02 422.719 2239.32 445.722L2248.68 475.278Z" fill="#FFD381"/>
</svg>
